<?xml version="1.0" encoding="UTF-8"?>
<svg version="1.1" xmlns="http://www.w3.org/2000/svg" width="2444" height="1654">
<path d="M0 0 C86.36776012 -1.30889407 173.57105422 6.25990449 390.50894165 72.59611511 C396.37306379 74.84164202 402.26900002 76.98525226 408.17871094 79.1081543 C446.6331944 92.94210406 484.01581265 109.46417728 520.69238281 127.45214844 C523.5829792 128.869219 526.47815538 130.27639744 529.37451172 131.68164062 C541.19240644 137.45689618 552.63048829 143.82620094 564.03173828 150.38085938 C566.91036394 152.02912828 569.79883483 153.6586804 572.69091797 155.28320312 C590.29366615 165.19718354 590.29366615 165.19718354 597.91748047 171.03320312 C594.2775051 172.24652825 593.6190922 171.74826097 590.19482422 170.25195312 C589.20442139 169.83010742 588.21401855 169.40826172 587.19360352 168.97363281 C586.09185791 168.49829102 584.9901123 168.02294922 583.85498047 167.53320312 C489.48664963 128.06645055 387.71249187 102.51195411 173.47998047 72.34570312 C172.66100281 72.28476471 171.84202515 72.22382629 170.99822998 72.16104126 C146.59788758 70.36882991 122.250333 69.8261628 97.79248047 69.84570312 C97.04242611 69.84597 96.29237175 69.84623688 95.51958847 69.84651184 C72.26541201 69.85688227 49.10320171 70.09472268 25.91748047 72.03320312 C24.30647952 72.163432 22.69547685 72.29363952 21.08447266 72.42382812 C-58.56798188 78.96902573 -137.69693564 95.99886889 -279.08251953 164.03320312 C-280.02804687 164.61312012 -280.97357422 165.19303711 -281.94775391 165.79052734 C-294.72570274 173.67345187 -307.06608876 182.03446101 -319.08251953 191.03320312 C-320.17886719 191.85135498 -320.17886719 191.85135498 -321.29736328 192.68603516 C-329.77829294 199.03369055 -338.05450999 205.5590708 -346.08251953 212.47070312 C-349.00017399 214.96286631 -351.96773006 217.37837246 -354.95751953 219.78320312 C-358.63039978 222.77040819 -362.03700579 225.85397339 -365.31469727 229.26635742 C-367.01221238 230.96293481 -368.76746485 232.50983914 -370.59814453 234.06054688 C-375.51178795 238.33200557 -380.10972106 242.90974956 -384.70092773 247.52124023 C-386.14277174 248.96844698 -387.58989069 250.41022338 -389.03759766 251.8515625 C-394.26593091 257.07614684 -399.2792827 262.41605072 -404.08251953 268.03320312 C-405.5369747 269.64088685 -406.99472848 271.24560027 -408.45751953 272.84570312 C-413.18828046 278.09501289 -417.65249005 283.52944258 -422.08251953 289.03320312 C-423.00790361 290.1663401 -423.93370346 291.29913761 -424.85986328 292.43164062 C-469.40589505 347.15432824 -497.71333895 412.24757786 -512.08251953 481.03320312 C-512.3180957 482.16000488 -512.55367187 483.28680664 -512.79638672 484.44775391 C-532.2510278 579.34810366 -525.51919965 680.88130909 -450.92138672 848.32373047 C-446.29318417 855.14313991 -441.25551245 861.62241246 -436.08251953 868.03320312 C-435.28330078 869.04382812 -434.48408203 870.05445313 -433.66064453 871.09570312 C-424.96747381 881.9467531 -415.36186048 891.85696843 -405.58251953 901.72070312 C-404.7165918 902.59968262 -403.85066406 903.47866211 -402.95849609 904.38427734 C-397.72629361 909.62337208 -392.31749801 914.45059504 -386.52246094 919.06079102 C-384.25344401 920.89503033 -382.09723363 922.80094755 -379.95751953 924.78320312 C-373.03818676 930.98970943 -365.52728495 936.48015339 -358.08251953 942.03320312 C-356.98061279 942.85643066 -356.98061279 942.85643066 -355.85644531 943.69628906 C-344.61454108 952.05622758 -333.04734225 959.74848066 -321.08251953 967.03320312 C-320.0417627 967.66838867 -320.0417627 967.66838867 -318.97998047 968.31640625 C-314.0597488 971.3030981 -309.08928436 974.19417744 -304.08251953 977.03320312 C-303.22658203 977.51869629 -302.37064453 978.00418945 -301.48876953 978.50439453 C-225.40807586 1021.34031066 -138.98649632 1044.54790802 -34.14501953 1056.22070312 C-33.35890289 1056.29960785 -32.57278625 1056.37851257 -31.7628479 1056.45980835 C-0.87365633 1059.51974546 30.07192687 1060.39240474 61.09315109 1060.29115295 C63.72088365 1060.28303821 66.34860751 1060.27811393 68.97634888 1060.27380371 C93.4908468 1060.2275654 117.96016809 1060.05538603 142.41741943 1058.22003174 C145.14181805 1058.01643846 147.86675511 1057.82125345 150.59179688 1057.62646484 C249.05339257 1050.51494043 346.58863063 1034.45892754 468.68792725 1006.79174805 C471.94442133 1006.02687536 475.20167185 1005.2652851 478.45898438 1004.50390625 C554.00367448 986.80894903 628.7108244 965.81421318 703.31554031 944.55517197 C724.69154146 938.4644049 746.08598887 932.46025756 767.54248047 926.65820312 C768.74014038 926.33433624 769.93780029 926.01046936 771.17175293 925.67678833 C784.05050277 922.19843538 796.93920445 918.75857217 809.83544922 915.34570312 C870.75038822 899.20814945 931.08064888 881.21817219 991.10498047 862.03320312 C992.00510864 861.74556091 992.90523682 861.4579187 993.8326416 861.16156006 C1025.88905459 850.90188255 1057.86367296 840.38151094 1089.81982422 829.81445312 C1091.36357129 829.30405991 1091.36357129 829.30405991 1092.93850517 828.78335571 C1102.33058865 825.67794206 1111.72221219 822.57114136 1121.11254883 819.46044922 C1144.55784957 811.69497055 1168.0218789 803.99372702 1191.54248047 796.45898438 C1193.0559094 795.97341064 1193.0559094 795.97341064 1194.59991264 795.47802734 C1253.24558374 776.6766358 1312.79900581 758.70365984 1373.91748047 750.03320312 C1375.02639648 749.87094238 1376.1353125 749.70868164 1377.27783203 749.54150391 C1404.98610789 745.61041762 1435.39367266 744.1861766 1462.91748047 750.03320312 C1463.72975098 750.20480957 1464.54202148 750.37641602 1465.37890625 750.55322266 C1492.48478997 756.52516278 1519.88164682 769.44912143 1535.91748047 793.03320312 C1544.75554243 808.46650228 1545.79962418 825.14027603 1541.94873047 842.29101562 C1534.39280317 869.709873 1516.89962281 893.02109508 1498.01123047 913.72070312 C1496.22843661 915.68975903 1494.506296 917.69210515 1492.79248047 919.72070312 C1485.25317031 928.37237051 1476.9326757 936.75800581 1468.14794922 944.14648438 C1466.16429606 945.82442566 1464.22062584 947.53558974 1462.28076172 949.26367188 C1460.93053749 950.45772322 1459.58027666 951.65173317 1458.22998047 952.84570312 C1457.58738281 953.4220752 1456.94478516 953.99844727 1456.28271484 954.59228516 C1452.98496377 957.48768315 1450.20533511 959.74602687 1445.91748047 961.03320312 C1448.32747934 957.2830647 1450.85780382 953.81862739 1453.72290039 950.39282227 C1466.53191792 935.01204323 1477.79161485 917.8540411 1486.91748047 900.03320312 C1487.26746094 899.35241699 1487.61744141 898.67163086 1487.97802734 897.97021484 C1496.80022384 880.58506362 1504.99544339 860.33635658 1499.79248047 840.59570312 C1494.99263609 827.11148916 1482.28282195 818.93754911 1469.91748047 813.03320312 C1401.10480116 784.18108298 1311.80744134 826.35951464 1247.65551758 852.5925293 C1242.35718727 854.78091364 1237.07279817 857.00136077 1231.79473877 859.23815918 C1229.83885252 860.06650311 1227.88189873 860.89228748 1225.92480469 861.71777344 C1193.83987377 875.26372782 1162.15101493 889.68682343 1130.49145508 904.19311523 C1120.83933203 908.61567464 1111.1739422 913.00857071 1101.50531006 917.39489746 C1093.62359536 920.97156101 1085.74982116 924.56460554 1077.89013672 928.18945312 C1077.1297963 928.54007309 1076.36945587 928.89069305 1075.58607483 929.25193787 C1074.43950661 929.78066246 1074.43950661 929.78066246 1073.26977539 930.32006836 C1058.16060005 937.28690643 1043.00862839 944.14282812 1027.79150391 950.87060547 C1017.90940784 955.24254585 1008.05960702 959.68141093 998.22314453 964.1550293 C978.68870749 973.03927134 959.07475103 981.69268639 939.3001709 990.02868652 C936.7688405 991.09586813 934.23817602 992.16461982 931.70751953 993.23339844 C873.70397726 1017.7143839 814.91126709 1040.06066703 755.91748047 1062.03320312 C754.89009766 1062.41605469 753.86271484 1062.79890625 752.80419922 1063.19335938 C722.92762357 1074.32460619 692.96665163 1085.21315377 662.94586182 1095.94909668 C660.0246536 1096.99483706 657.10443079 1098.0432766 654.18457031 1099.09277344 C579.53164098 1125.91504105 504.15767101 1151.09046749 427.91748047 1173.03320312 C426.2995459 1173.49892731 426.2995459 1173.49892731 424.64892578 1173.97406006 C313.63532131 1205.87688632 201.01325111 1232.52925113 -89.08251953 1256.03320312 C-89.75621582 1256.02353516 -90.42991211 1256.01386719 -91.12402344 1256.00390625 C-155.87265774 1255.04300641 -221.2033911 1247.68878905 -284.08251953 1232.03320312 C-285.38434178 1231.71476705 -286.68626446 1231.3967413 -287.98828125 1231.07910156 C-333.50625536 1219.91937249 -377.85276193 1204.38733769 -420.08251953 1184.03320312 C-420.79214844 1183.69160156 -421.50177734 1183.35 -422.23291016 1182.99804688 C-426.1277767 1181.10985838 -429.98960277 1179.16334293 -433.83789062 1177.18212891 C-436.42898337 1175.85586368 -439.03147538 1174.55312706 -441.63330078 1173.24804688 C-474.51529994 1156.61300258 -505.82009863 1136.40993563 -535.08251953 1114.03320312 C-536.04569092 1113.2974707 -536.04569092 1113.2974707 -537.02832031 1112.546875 C-544.53670358 1106.78476411 -551.82118599 1100.78677982 -559.01220703 1094.63476562 C-561.75985998 1092.29062611 -564.57052182 1090.03436996 -567.39501953 1087.78320312 C-574.2918791 1082.17134796 -580.66518033 1076.00301826 -587.11328125 1069.88916016 C-590.05547018 1067.11622187 -593.03838789 1064.38855874 -596.02001953 1061.65820312 C-603.03575917 1055.20402102 -609.80803946 1048.62777056 -616.01220703 1041.38476562 C-618.20942578 1038.88905678 -620.47157164 1036.46541218 -622.74780273 1034.04199219 C-628.81325863 1027.58071831 -634.56449745 1020.97310461 -640.08251953 1014.03320312 C-640.99029074 1012.91643655 -641.89920805 1011.80060091 -642.80908203 1010.68554688 C-686.74065896 956.64419283 -719.7378965 894.86933759 -742.08251953 829.03320312 C-742.43121094 828.02225586 -742.77990234 827.01130859 -743.13916016 825.96972656 C-770.80677592 745.37390894 -778.41946981 657.30505051 -715.73095703 396.40429688 C-693.64939122 351.24697152 -665.57602427 310.05205814 -633.02001953 271.84570312 C-632.59865723 271.3488501 -632.17729492 270.85199707 -631.74316406 270.34008789 C-621.86146803 258.83823209 -611.25000387 248.03892795 -600.51757812 237.33789062 C-598.31799882 235.1437181 -596.12387946 232.94418589 -593.93017578 230.74414062 C-592.50731953 229.32194457 -591.08415344 227.90005842 -589.66064453 226.47851562 C-589.01774475 225.83359161 -588.37484497 225.1886676 -587.71246338 224.52420044 C-583.32981237 220.16378305 -578.77356623 216.05845353 -574.08251953 212.03320312 C-572.98836254 211.08315081 -571.89454017 210.13271277 -570.80126953 209.18164062 C-544.43226545 186.40840983 -516.5507204 165.63383594 -487.08251953 147.03320312 C-486.2986084 146.53498047 -485.51469727 146.03675781 -484.70703125 145.5234375 C-461.87986268 131.04173387 -438.15700197 118.27560765 -414.06671143 106.04156494 C-412.02654796 105.0047585 -409.98780836 103.96519013 -407.94921875 102.92529297 C-336.90808675 66.72567958 -261.98533522 39.03593716 0 0 Z " fill="#00A3CA" transform="translate(836.08251953125,171.966796875)"/>
<path d="M0 0 C0.95546722 -0.00511093 1.91093445 -0.01022186 2.89535522 -0.01548767 C6.05049947 -0.0293695 9.20542455 -0.02842608 12.3605957 -0.02612305 C14.5709491 -0.03001445 16.78130175 -0.03435003 18.99165344 -0.03910828 C23.6310162 -0.04657021 28.2703029 -0.04628208 32.90966797 -0.04101562 C38.80422204 -0.0352608 44.6984578 -0.05205503 50.5929594 -0.0753603 C55.16514353 -0.09023385 59.73725374 -0.09095033 64.30945778 -0.08785057 C66.47918127 -0.08835829 68.64890953 -0.09349075 70.81860924 -0.10366249 C96.74722448 -0.21018243 124.27798689 1.99356591 144.05981445 20.80200195 C154.99020167 32.60905845 158.22818547 46.07109298 157.66137695 61.7512207 C156.82605577 76.12471161 150.960454 87.35555236 140.6574707 97.3371582 C138.02088483 99.5499274 135.24249516 101.41477161 132.34887695 103.2746582 C133.24348633 103.74774414 134.1380957 104.22083008 135.05981445 104.70825195 C150.06622569 112.8329941 161.41734713 122.66886659 166.62231445 139.4152832 C170.69206338 155.43171448 169.35072953 172.48613845 160.93481445 186.8137207 C151.04670727 202.15733531 134.022031 210.00015008 116.6345768 213.83566475 C106.64544119 215.75418662 96.89361169 216.56390162 86.73413086 216.50170898 C84.81448769 216.50214706 84.81448769 216.50214706 82.85606384 216.50259399 C79.39620092 216.50316039 75.93648086 216.49152383 72.47665071 216.47744608 C68.8425449 216.4648177 65.20843467 216.46375879 61.5743103 216.46139526 C54.71467259 216.45521566 47.85509976 216.43885327 40.99549043 216.41869628 C33.17670218 216.39622673 25.3579106 216.38531625 17.53909802 216.37530541 C1.47565322 216.35448329 -14.58772659 216.31937693 -30.65112305 216.2746582 C-30.72123671 191.26604076 -30.77412282 166.25743807 -30.80655956 141.2487421 C-30.82202152 129.63649775 -30.84309827 118.0243145 -30.87744141 106.41210938 C-30.90736423 96.2896775 -30.92670293 86.16728988 -30.93338853 76.044815 C-30.93729588 70.6861682 -30.94646487 65.32764801 -30.96831322 59.96904182 C-30.98872384 54.92201618 -30.99494757 49.87516893 -30.99044609 44.82810593 C-30.99126924 42.97904808 -30.99720754 41.12998406 -31.00873947 39.28096199 C-31.13858798 17.38103447 -31.13858798 17.38103447 -23.65112305 8.2746582 C-16.24936096 1.665376 -9.7550549 -0.027063 0 0 Z M20.34887695 38.2746582 C20.34887695 54.7746582 20.34887695 71.2746582 20.34887695 88.2746582 C27.97529262 88.3378024 35.60074554 88.39787948 43.22719574 88.42990875 C46.77967163 88.44566294 50.33192808 88.46666779 53.88427734 88.50097656 C57.9727576 88.54021022 62.0610103 88.55444074 66.1496582 88.56762695 C68.03313713 88.59085274 68.03313713 88.59085274 69.95466614 88.61454773 C80.65500374 88.61656755 91.92583125 87.37060436 100.03637695 79.6730957 C105.26774834 73.96385866 106.86194586 68.56303712 106.65356445 60.86450195 C106.03350897 55.59403032 104.34592854 51.25871379 100.5480957 47.4855957 C85.17294203 35.36460076 64.41546436 38.01978787 45.97387695 38.1496582 C43.48429722 38.15970729 40.99471356 38.16882973 38.50512695 38.17700195 C32.45286606 38.19714929 26.40115813 38.23632567 20.34887695 38.2746582 Z M20.34887695 126.2746582 C20.34887695 143.4346582 20.34887695 160.5946582 20.34887695 178.2746582 C31.60863272 178.332959 31.60863272 178.332959 42.8684082 178.37231445 C47.46985566 178.38420803 52.07122251 178.39818239 56.67260742 178.42553711 C60.38792038 178.44748263 64.10314675 178.45927189 67.81851959 178.46441269 C69.22648733 178.46806992 70.63445106 178.47520982 72.04238129 178.48611832 C86.3663362 178.592549 100.86257093 178.10836446 111.91137695 167.90356445 C115.96594213 163.30912511 117.33769938 157.28819483 117.34887695 151.2746582 C116.65766239 144.11116186 114.1311509 137.58414791 108.63012695 132.77075195 C98.4146955 125.75810946 86.62931609 125.8561651 74.7434082 125.98168945 C73.16729642 125.98729743 71.59117935 125.99156184 70.01506042 125.99455261 C65.90344335 126.00590695 61.79215348 126.03529077 57.68066406 126.06866455 C52.72790029 126.10502194 47.77502598 126.11857151 42.82216644 126.13602448 C35.33084365 126.16493567 27.84023621 126.22248727 20.34887695 126.2746582 Z " fill="#00D0F3" transform="translate(1499.651123046875,569.725341796875)"/>
<path d="M0 0 C0.33 0.66 0.66 1.32 1 2 C1.33 -3.94 1.66 -9.88 2 -16 C17.51 -16 33.02 -16 49 -16 C49.04529449 2.87281897 49.08207467 21.74559334 49.10362434 40.61845303 C49.11389993 49.38310644 49.12788843 58.14772347 49.15087891 66.91235352 C49.17092741 74.55911968 49.18374338 82.20585946 49.18817699 89.85265118 C49.19076514 93.89473016 49.1967691 97.93673376 49.21146011 101.97878838 C49.43263241 165.39093618 49.43263241 165.39093618 27.4375 189.125 C17.97136661 198.00860211 6.32510919 204.1489601 -6 208 C-6.65983887 208.21027832 -7.31967773 208.42055664 -7.99951172 208.63720703 C-42.48822091 218.96664495 -85.33208178 212.74942258 -116.984375 196.80859375 C-120.33278746 194.80041374 -123.06665672 192.56887099 -126 190 C-125.40636289 185.5534699 -123.62007567 182.08535393 -121.4375 178.23828125 C-121.0861499 177.60641403 -120.7347998 176.97454681 -120.37280273 176.3235321 C-119.2548567 174.31624733 -118.12767178 172.31433409 -117 170.3125 C-116.24155667 168.95543049 -115.48373744 167.59801199 -114.7265625 166.24023438 C-113.3437638 163.76120381 -111.95674529 161.28462237 -110.56640625 158.80981445 C-109.68155457 157.22257038 -108.81268767 155.62537534 -108 154 C-104.83414578 155.08826239 -102.15943303 156.49058703 -99.375 158.3125 C-79.85314044 170.61740593 -54.0940389 175.20965722 -31.4375 170.8125 C-20.88411054 168.14650988 -13.27823708 164.11216353 -7 155 C-1.7963808 145.41357058 -0.5802261 134.75087608 -1 124 C-1.41507813 124.42410156 -1.83015625 124.84820313 -2.2578125 125.28515625 C-17.04535265 139.36116204 -35.89881445 142.59228813 -55.55444336 142.40478516 C-78.61431317 141.82158839 -99.40006633 133.2591817 -115.51757812 116.62353516 C-132.87779312 97.61078323 -136.19832161 75.84094397 -135.20263672 51.11181641 C-133.91269764 31.30270376 -123.6395564 13.22054836 -108.93359375 0.21875 C-78.86171289 -24.95987389 -29.42466651 -27.10166652 0 0 Z M-78.5 37.93359375 C-85.18165338 47.13826729 -87.25495322 57.68308273 -85.5703125 68.84765625 C-83.35872305 79.42779099 -78.41847281 88.16937554 -69.53125 94.5 C-57.15383547 101.83476417 -43.90068916 103.96531246 -29.8125 100.875 C-20.31859688 98.1856862 -12.04435426 92.85766054 -6 85 C0.17412531 73.9265066 1.84026425 62.21240717 -0.6484375 49.75390625 C-4.20584324 39.03608127 -11.22024084 31.45518358 -21 26 C-40.24389025 16.37805488 -64.91291866 21.35861258 -78.5 37.93359375 Z " fill="#00DCFD" transform="translate(2036,636)"/>
<path d="M0 0 C3.91726339 1.65185806 6.89088006 4.30424285 10.0625 7.0625 C11.22981968 8.06455869 12.39779826 9.06585029 13.56640625 10.06640625 C14.14664551 10.56414551 14.72688477 11.06188477 15.32470703 11.57470703 C17.6879124 13.58525686 20.09143529 15.54414643 22.5 17.5 C27.1045358 21.24787798 31.64019191 25.06983444 36.1640625 28.9140625 C39.5805954 31.81244823 43.02504838 34.671551 46.5 37.5 C50.53983767 40.78823997 54.53074485 44.12741503 58.5 47.5 C63.4375442 51.69181481 68.38822266 55.86331246 73.44921875 59.90625 C76 62 76 62 78.33203125 64.21875 C79.06808594 64.8890625 79.80414062 65.559375 80.5625 66.25 C81.18253906 66.85328125 81.80257812 67.4565625 82.44140625 68.078125 C85.53853416 69.19403674 86.48575407 68.75081912 89.57104492 67.77099609 C90.46564926 67.48708008 91.3602536 67.20316406 92.28196716 66.91064453 C96.35844234 65.54487007 100.39527945 64.0919054 104.421875 62.5859375 C105.30505402 62.25856094 106.18823303 61.93118439 107.09817505 61.59388733 C109.98318322 60.52377286 112.8665806 59.44938717 115.75 58.375 C117.76696926 57.62605864 119.78406116 56.8774475 121.80126953 56.12915039 C126.02390715 54.56245905 130.24600483 52.99432443 134.46777344 51.42529297 C144.2367663 47.79625974 154.01324138 44.18746724 163.78918457 40.57720947 C168.71130631 38.75928196 173.63298529 36.9401567 178.5546875 35.12109375 C180.20556422 34.51098041 181.85644288 33.90087233 183.50732422 33.29077148 C185.23619873 32.6518396 185.23619873 32.6518396 187 32 C187.96475739 35.08144222 187.98296135 37.19592713 187.34269714 40.34851074 C187.1723848 41.2117395 187.00207245 42.07496826 186.82659912 42.96435547 C186.63269592 43.90359863 186.43879272 44.8428418 186.23901367 45.81054688 C185.82882793 47.87421855 185.41911611 49.93798446 185.0098114 52.00183105 C184.79018927 53.09567612 184.57056713 54.18952118 184.34428978 55.31651306 C183.19165158 61.11486636 182.10276787 66.92526856 181.00585938 72.734375 C179.60977751 80.12568615 178.19416754 87.51085049 176.68920898 94.88085938 C175.47430577 100.83903219 174.33692326 106.80752151 173.24993324 112.79029846 C172.82265284 115.06336417 172.36753579 117.33138508 171.88387108 119.59312439 C168.94156208 131.02623446 168.94156208 131.02623446 171.18552017 142.10437012 C174.32468788 145.81644758 178.04091902 148.42263752 182.19689369 150.89013672 C184.86254285 152.53091968 187.18645277 154.5333245 189.5625 156.5625 C190.44035156 157.27535156 191.31820312 157.98820312 192.22265625 158.72265625 C195.34396367 161.28204054 198.4245003 163.88593791 201.5 166.5 C205.46903543 169.87283589 209.46017021 173.21176645 213.5 176.5 C217.53983452 179.7882374 221.53083277 183.12731461 225.5 186.5 C232.29072629 192.26782195 239.15519458 197.94239569 246.12890625 203.48828125 C247.13824219 204.29652344 248.14757813 205.10476563 249.1875 205.9375 C250.10917969 206.66839844 251.03085938 207.39929687 251.98046875 208.15234375 C252.64691406 208.76207031 253.31335937 209.37179687 254 210 C254 210.66 254 211.32 254 212 C230.55810078 208.23113531 207.13478284 204.36618435 183.72950554 200.37634063 C179.72433567 199.69387841 175.71889838 199.01298874 171.71350098 198.3318634 C165.03490906 197.19592893 158.35650158 196.05891569 151.67822266 194.92114258 C143.97462017 193.6086947 136.27075433 192.2978016 128.56674623 190.98773688 C121.07918246 189.71446335 113.59175987 188.44036168 106.10441589 187.16579628 C102.94349476 186.62771503 99.78253205 186.08987903 96.62153625 185.55223656 C92.92413913 184.92330373 89.22686874 184.29363109 85.52969551 183.66338348 C83.53317899 183.32321167 81.53654213 182.98374633 79.53990173 182.64430237 C78.34961868 182.44124481 77.15933563 182.23818726 75.9329834 182.02897644 C74.9016201 181.85333255 73.87025681 181.67768866 72.80764008 181.49672222 C71.88111885 181.33280389 70.95459763 181.16888556 70 181 C69.08331795 180.86744466 68.16663589 180.73488932 67.2221756 180.59831715 C66.48885765 180.40087249 65.7555397 180.20342783 65 180 C63.51220703 177.39794922 63.51220703 177.39794922 62.2578125 173.8046875 C62.017211 173.13540726 61.7766095 172.46612701 61.52871704 171.77656555 C60.70863445 169.48227957 59.91771856 167.17887105 59.125 164.875 C58.53252394 163.20403431 57.9377154 161.5338942 57.34082031 159.86450195 C55.98698196 156.0731425 54.64310914 152.27841692 53.30371094 148.48193359 C50.78315154 141.36278901 48.19647214 134.26806622 45.6015625 127.17578125 C45.36576288 126.53119209 45.12996326 125.88660294 44.8870182 125.22248077 C43.91695715 122.57109039 42.94662106 119.91980097 41.97581196 117.26868439 C40.2351719 112.51507841 38.49816705 107.76015689 36.76342773 103.00439453 C36.51712836 102.32918259 36.27082899 101.65397064 36.017066 100.95829773 C35.52062552 99.59732376 35.02418686 98.23634913 34.52775002 96.87537384 C29.09869674 81.9937497 23.64974427 67.11947539 18.1875 52.25 C17.63409943 50.74253708 17.63409943 50.74253708 17.06951904 49.20462036 C13.62526995 39.82308614 10.1751762 30.44414442 6.66796875 21.0859375 C6.18139644 19.78483075 5.69482417 18.48372398 5.20825195 17.18261719 C4.35586275 14.90812249 3.4993312 12.63517311 2.63745117 10.36425781 C2.28013916 9.41131836 1.92282715 8.45837891 1.5546875 7.4765625 C1.25030762 6.67299316 0.94592773 5.86942383 0.63232422 5.04150391 C0 3 0 3 0 0 Z " fill="#6CE1E9" transform="translate(2084,1115)"/>
<path d="M0 0 C15.39997438 13.74909713 23.8469906 31.81220434 26.44140625 52.1796875 C26.67756575 56.53896511 26.67788668 60.87777353 26.62890625 65.2421875 C26.62793945 66.93118164 26.62793945 66.93118164 26.62695312 68.65429688 C26.58233995 76.8978201 26.58233995 76.8978201 25.44140625 79.1796875 C-15.47859375 79.5096875 -56.39859375 79.8396875 -98.55859375 80.1796875 C-93.44149782 92.97242732 -88.83714376 99.83347064 -76.55859375 106.1796875 C-73.60137466 107.42098934 -70.67218151 108.4159773 -67.55859375 109.1796875 C-66.50091797 109.45232422 -66.50091797 109.45232422 -65.421875 109.73046875 C-47.4819237 112.54505865 -31.39008514 109.7806374 -16.55859375 99.1796875 C-15.33225656 98.36292312 -14.10365461 97.54952923 -12.87109375 96.7421875 C-11.72640625 95.96875 -11.72640625 95.96875 -10.55859375 95.1796875 C-5.67329075 99.96529044 -0.91949427 104.79428689 3.53515625 109.984375 C7.4192623 114.45746435 11.44583993 118.80627084 15.44140625 123.1796875 C2.34802051 139.71870107 -16.29835949 147.25185099 -36.74609375 150.4296875 C-66.16570026 153.80670541 -96.15600758 148.84477752 -119.84228516 130.23413086 C-135.35533579 117.41193268 -146.35342572 98.30950258 -148.55859375 78.1796875 C-149.9388715 59.17005872 -148.74103698 41.2021115 -139.55859375 24.1796875 C-139.11773438 23.34179688 -138.676875 22.50390625 -138.22265625 21.640625 C-134.50957146 15.01451237 -129.86786934 9.58423557 -124.55859375 4.1796875 C-123.81996094 3.4165625 -123.08132813 2.6534375 -122.3203125 1.8671875 C-89.91617433 -29.50219668 -33.7530489 -27.99548657 0 0 Z M-90.53125 29.21484375 C-95.58976993 35.30439959 -99.55859375 42.12739487 -99.55859375 50.1796875 C-73.15859375 50.1796875 -46.75859375 50.1796875 -19.55859375 50.1796875 C-21.90227059 39.63314172 -25.72226902 30.82719785 -34.55859375 24.1796875 C-52.52766872 13.7429843 -75.25696081 13.45661668 -90.53125 29.21484375 Z " fill="#00C3E7" transform="translate(1228.55859375,637.8203125)"/>
<path d="M0 0 C13.03040753 12.39840488 18.91438335 29.13165429 19.51132202 46.86398315 C19.63375462 53.44990111 19.58808227 60.034595 19.54296875 66.62109375 C19.53736268 69.04345943 19.53309737 71.46582854 19.53010559 73.88819885 C19.5187364 80.21580656 19.48933858 86.54320257 19.45599365 92.87072754 C19.4251206 99.34673195 19.41156366 105.82277109 19.39648438 112.29882812 C19.36446032 124.97015932 19.31175831 137.64127881 19.25 150.3125 C4.07 150.3125 -11.11 150.3125 -26.75 150.3125 C-27.08 145.0325 -27.41 139.7525 -27.75 134.3125 C-28.9875 135.67375 -30.225 137.035 -31.5 138.4375 C-43.87978385 150.77847575 -61.06712771 153.57059813 -77.89135742 153.5612793 C-95.89724106 153.29241929 -112.19003336 148.66585944 -125.75 136.3125 C-135.91032444 124.94024144 -139.14919598 113.28206325 -139.03125 98.2734375 C-138.3774409 89.06562607 -135.30580049 80.67716577 -129.75 73.3125 C-129.14929688 72.4978125 -128.54859375 71.683125 -127.9296875 70.84375 C-116.47108989 57.53699149 -97.41883075 53.85694574 -80.75 52.3125 C-71.86049151 51.87042212 -62.95893569 52.0253218 -54.0625 52.125 C-51.6920659 52.14009004 -49.32162238 52.15377072 -46.95117188 52.16601562 C-41.21723816 52.19864176 -35.48366494 52.24849103 -29.75 52.3125 C-30.17868583 50.07330462 -30.6215428 47.83681936 -31.0703125 45.6015625 C-31.43793701 43.73298584 -31.43793701 43.73298584 -31.81298828 41.82666016 C-33.10380747 36.98558373 -35.27129696 33.83591645 -38.75 30.3125 C-39.8328125 29.19875 -39.8328125 29.19875 -40.9375 28.0625 C-54.19468987 19.81358186 -69.90974012 20.26873241 -84.75 23.3125 C-94.12565495 25.52506398 -102.24031834 28.6856675 -110.39453125 33.859375 C-112.75 35.3125 -112.75 35.3125 -115.75 36.3125 C-116.01627197 35.77471924 -116.28254395 35.23693848 -116.55688477 34.68286133 C-117.80647603 32.16243547 -119.05917421 29.64357088 -120.3125 27.125 C-120.98889526 25.76290405 -120.98889526 25.76290405 -121.67895508 24.37329102 C-124.83303575 18.0544948 -128.14219561 11.8664539 -131.66796875 5.74609375 C-132.75 3.3125 -132.75 3.3125 -131.75 0.3125 C-129.2285515 -1.28661342 -126.76982789 -2.69730754 -124.125 -4.0625 C-123.35518799 -4.46170654 -122.58537598 -4.86091309 -121.79223633 -5.2722168 C-86.46202483 -23.13531705 -31.69593264 -27.2541897 0 0 Z M-87.75 89.3125 C-91.23956958 94.3142164 -91.71752742 99.39780409 -90.75 105.3125 C-88.49488097 110.94066033 -85.12294864 114.46154766 -79.75 117.3125 C-70.7599365 120.97217187 -58.77856916 120.7686453 -49.625 117.6875 C-40.87216003 113.85394375 -34.06234221 107.93718442 -29.75 99.3125 C-29.66691362 97.93701844 -29.64263984 96.55764204 -29.65234375 95.1796875 C-29.65556641 94.37402344 -29.65878906 93.56835938 -29.66210938 92.73828125 C-29.67048828 91.89652344 -29.67886719 91.05476562 -29.6875 90.1875 C-29.69201172 89.33800781 -29.69652344 88.48851562 -29.70117188 87.61328125 C-29.71297126 85.51299091 -29.73090694 83.4127367 -29.75 81.3125 C-35.22685859 81.23760607 -40.70341045 81.18355098 -46.18066406 81.14770508 C-48.03878989 81.13274095 -49.89688117 81.11236227 -51.75488281 81.08618164 C-71.39948833 80.17139819 -71.39948833 80.17139819 -87.75 89.3125 Z " fill="#00B6DA" transform="translate(853.75,635.6875)"/>
<path d="M0 0 C16.17 0 32.34 0 49 0 C49.02578125 7.00734375 49.0515625 14.0146875 49.078125 21.234375 C49.10331134 25.6914421 49.12965813 30.14844254 49.16015625 34.60546875 C49.20838327 41.66943557 49.25246863 48.73324798 49.27099609 55.79736328 C49.28621464 61.49692271 49.32075252 67.19607632 49.36830902 72.89545441 C49.38306928 75.0625479 49.39103792 77.22969936 49.39188385 79.39684296 C49.24296682 99.59123953 49.24296682 99.59123953 58.15625 117.3125 C65.93363114 124.43078105 75.10036154 125.38830816 85.16796875 125.2109375 C95.63881004 124.63456092 102.32361055 120.56763621 109.6875 113.375 C116.40209894 104.79397017 118.13421426 94.41719554 118.20532227 83.89526367 C118.21522186 82.98745148 118.22512146 82.07963928 118.23532104 81.14431763 C118.26683635 78.15222761 118.29165401 75.16012172 118.31640625 72.16796875 C118.33698439 70.09002781 118.35798108 68.01209098 118.37937927 65.93415833 C118.43451114 60.47127614 118.48395956 55.00835673 118.53222656 49.54541016 C118.59135034 42.98743885 118.65752936 36.4295354 118.72252655 29.87162018 C118.82042425 19.91445498 118.90935686 9.95724579 119 0 C135.17 0 151.34 0 168 0 C168 54.78 168 109.56 168 166 C152.82 166 137.64 166 122 166 C121.67 160.39 121.34 154.78 121 149 C120.0925 150.010625 119.185 151.02125 118.25 152.0625 C105.75355541 164.48351334 87.94104574 168.89605544 70.8125 169.3125 C51.74400811 169.00022173 32.5410031 164.02475399 18.25 150.75 C0.70977935 131.90894958 -0.45717316 108.82609239 -0.29296875 84.5703125 C-0.28736383 82.12409731 -0.28309797 79.67787872 -0.28010559 77.23165894 C-0.26872741 70.83663406 -0.2393215 64.44181812 -0.20599365 58.046875 C-0.16970246 50.35074683 -0.15609814 42.65454826 -0.13863373 34.95835876 C-0.10967945 23.30542782 -0.05214282 11.65295405 0 0 Z " fill="#00D7F9" transform="translate(1701,620)"/>
<path d="M0 0 C62.04 0 124.08 0 188 0 C188 13.53 188 27.06 188 41 C165.56 41 143.12 41 120 41 C120 98.75 120 156.5 120 216 C103.17 216 86.34 216 69 216 C69 158.25 69 100.5 69 41 C46.23 41 23.46 41 0 41 C0 27.47 0 13.94 0 0 Z " fill="#00A9CF" transform="translate(398,570)"/>
<path d="M0 0 C16.83 0 33.66 0 51 0 C58.58549975 18.24360699 66.07314791 36.52255603 73.47021484 54.84326172 C74.19367972 56.63509323 74.91714979 58.42692266 75.640625 60.21875 C75.99899445 61.10644073 76.35736389 61.99413147 76.72659302 62.90872192 C79.27857273 69.22577913 81.84685628 75.53605378 84.421875 81.84375 C85.46717031 84.4078856 86.51222602 86.97211873 87.55722046 89.53637695 C88.22415601 91.17082562 88.89229633 92.80478322 89.56167603 94.43823242 C90.48299292 96.68674829 91.40014087 98.93692196 92.31640625 101.1875 C92.59051331 101.85309937 92.86462036 102.51869873 93.14703369 103.20446777 C95 107.77235804 95 107.77235804 95 110 C95.66 110 96.32 110 97 110 C97.09031494 109.35691895 97.18062988 108.71383789 97.27368164 108.05126953 C98.26600288 103.88251968 99.93198566 100.10966534 101.62109375 96.1796875 C101.99273148 95.30424286 102.3643692 94.42879822 102.74726868 93.52682495 C103.55215024 91.63220089 104.35917189 89.73848487 105.16809082 87.84558105 C106.88932318 83.81767554 108.6002868 79.78543561 110.31185913 75.75341797 C111.20099872 73.6591177 112.09067453 71.56504501 112.98086548 69.47119141 C117.22212676 59.49215955 121.41967749 49.49507206 125.603302 39.49176025 C126.71710347 36.82865576 127.83198892 34.16600719 128.94702148 31.50341797 C129.64705178 29.83043675 130.34700669 28.15742399 131.046875 26.484375 C131.34419022 25.77433319 131.64150543 25.06429138 131.9478302 24.33273315 C135.33165241 16.23522765 138.65834731 8.11544225 142 0 C157.84 0 173.68 0 190 0 C186.62512803 10.12461591 186.62512803 10.12461591 185.21679688 13.43847656 C184.89718994 14.19529724 184.57758301 14.95211792 184.24829102 15.73187256 C183.90854248 16.52676086 183.56879395 17.32164917 183.21875 18.140625 C182.85322021 19.00367249 182.48769043 19.86671997 182.11108398 20.75592041 C180.9105324 23.58862527 179.70523954 26.41928697 178.5 29.25 C177.64742268 31.25961133 176.79521589 33.26937989 175.94335938 35.27929688 C174.17461015 39.45178173 172.40427389 43.62358781 170.6328125 47.79492188 C166.96516699 56.43460845 163.31697193 65.08249143 159.66864014 73.73034668 C158.10359894 77.43946244 156.53743898 81.14810535 154.97128296 84.85675049 C151.70661835 92.58748033 148.44333397 100.31879064 145.1819458 108.05090332 C143.48707639 112.06897453 141.79177062 116.08686157 140.09643555 120.10473633 C139.30113497 121.98989915 138.50603975 123.87514862 137.71118164 125.76049805 C135.14682171 131.84289633 132.576704 137.92282066 130 144 C129.58979614 144.96824707 129.17959229 145.93649414 128.75695801 146.93408203 C127.51006422 149.87393038 126.25949972 152.81218977 125.0078125 155.75 C124.62116425 156.66225342 124.23451599 157.57450684 123.83615112 158.5144043 C123.47917145 159.35011963 123.12219177 160.18583496 122.75439453 161.046875 C122.43906769 161.78776367 122.12374084 162.52865234 121.79885864 163.29199219 C121 165 121 165 120 166 C118.40389018 166.09333705 116.80366572 166.11745372 115.20483398 166.11352539 C114.18385117 166.11344986 113.16286835 166.11337433 112.11094666 166.11329651 C111.0005452 166.10813522 109.89014374 166.10297394 108.74609375 166.09765625 C107.61551041 166.0962413 106.48492706 166.09482635 105.32008362 166.09336853 C101.69252935 166.08775019 98.06503576 166.07519458 94.4375 166.0625 C91.98502693 166.05748736 89.5325529 166.05292405 87.08007812 166.04882812 C81.05336455 166.0377748 75.02668661 166.02101884 69 166 C59.63114822 143.84817016 50.27526038 121.69120712 41 99.5 C35.16239865 85.53384395 29.29904685 71.57888366 23.40689087 57.63565063 C22.20277459 54.78614685 20.99913692 51.93644138 19.7956543 49.08666992 C15.35276516 38.5656308 15.35276516 38.5656308 10.90332031 28.04736328 C9.32275318 24.31452691 7.74535256 20.58036996 6.17056274 16.84509277 C5.60412997 15.50331775 5.03642667 14.16207829 4.46737671 12.82141113 C3.70026761 11.01382441 2.93787556 9.20423796 2.17578125 7.39453125 C1.75208252 6.39268799 1.32838379 5.39084473 0.8918457 4.35864258 C0 2 0 2 0 0 Z " fill="#00BCE0" transform="translate(888,620)"/>
<path d="M0 0 C16.17 0 32.34 0 49 0 C49 75.57 49 151.14 49 229 C32.83 229 16.66 229 0 229 C0 153.43 0 77.86 0 0 Z " fill="#00C8EB" transform="translate(1286,557)"/>
<path d="M0 0 C0 15.18 0 30.36 0 46 C-6.27 46 -12.54 46 -19 46 C-29.87671554 47.77792466 -39.8704288 52.10899865 -46.79296875 61.06640625 C-54.8452329 73.96566435 -54.32188374 89.03454483 -54.4140625 103.66796875 C-54.43280289 105.55797646 -54.45237837 107.44797606 -54.4727478 109.33796692 C-54.52377203 114.27795599 -54.56355552 119.2179721 -54.60089111 124.15808105 C-54.64820899 130.10384174 -54.70967788 136.0494714 -54.76873779 141.99512482 C-54.85658722 150.99669612 -54.9266109 159.99824694 -55 169 C-71.17 169 -87.34 169 -104 169 C-104 114.22 -104 59.44 -104 3 C-88.49 3 -72.98 3 -57 3 C-56.505 11.91 -56.505 11.91 -56 21 C-54.68 19.68 -53.36 18.36 -52 17 C-37.44131472 3.94454531 -19.11015071 0 0 0 Z " fill="#00AFD5" transform="translate(709,617)"/>
<path d="M0 0 C0.93399392 3.03574256 1.00526897 5.23908452 0.49746704 8.36437988 C0.36039337 9.23075577 0.2233197 10.09713165 0.08209229 10.98976135 C-0.07567688 11.93222214 -0.23344604 12.87468292 -0.39599609 13.84570312 C-0.5569577 14.84447983 -0.71791931 15.84325653 -0.88375854 16.87229919 C-1.4201173 20.17705068 -1.9700502 23.47930918 -2.5234375 26.78125 C-2.71170734 27.90894302 -2.89997719 29.03663605 -3.09395218 30.19850159 C-4.09215954 36.16364225 -5.10228858 42.12664034 -6.12060547 48.08837891 C-7.17022423 54.25039119 -8.17412351 60.41896063 -9.16827965 66.59012604 C-9.94128157 71.33196377 -10.74975605 76.06725941 -11.56789017 80.80149841 C-11.95385965 83.0734145 -12.32609842 85.34770742 -12.68433762 87.62416077 C-13.18863373 90.80863986 -13.74289044 93.98050097 -14.31005859 97.15429688 C-14.44758545 98.09675766 -14.5851123 99.03921844 -14.72680664 100.01023865 C-15.91306422 106.22874821 -15.91306422 106.22874821 -19.01972485 108.43312645 C-21.32358524 109.47557195 -23.58172803 110.26736037 -26 111 C-27.46741022 111.5666227 -28.93162842 112.14166196 -30.39086914 112.72900391 C-31.93794152 113.3142358 -33.48609059 113.89662725 -35.03515625 114.4765625 C-35.89199509 114.79978989 -36.74883392 115.12301727 -37.63163757 115.45603943 C-40.4409401 116.51499672 -43.25167409 117.57009365 -46.0625 118.625 C-48.03229574 119.36627129 -50.00202104 120.10772977 -51.97167969 120.84936523 C-56.13363421 122.41577904 -60.29628948 123.98031172 -64.45947266 125.54345703 C-70.04211784 127.63964158 -75.62328323 129.73973705 -81.2040863 131.84082031 C-85.6436899 133.51187808 -90.08393107 135.181236 -94.52438354 136.85003662 C-96.67536551 137.65856017 -98.82618338 138.46752039 -100.97683716 139.2769165 C-103.9787359 140.40630572 -106.98143388 141.53354207 -109.984375 142.66015625 C-110.88637131 142.99994003 -111.78836761 143.33972382 -112.71769714 143.68980408 C-113.53498795 143.99592117 -114.35227875 144.30203827 -115.19433594 144.61743164 C-116.26648346 145.02017052 -116.26648346 145.02017052 -117.36029053 145.43104553 C-119 146 -119 146 -120 146 C-119.41431165 134.95518041 -117.20200982 124.11478311 -115.25390625 113.25 C-114.87877908 111.14302124 -114.50385874 109.03600565 -114.12913513 106.92895508 C-113.34635913 102.53425418 -112.55998567 98.14021531 -111.77124023 93.74658203 C-110.76002359 88.11109844 -109.75960311 82.47375758 -108.76202488 76.83584595 C-107.99229694 72.49420174 -107.21605811 68.15374086 -106.43791008 63.81359863 C-106.06609841 61.73432852 -105.69652606 59.6546567 -105.32922554 57.57458496 C-104.81680605 54.67737187 -104.29544773 51.78190741 -103.77172852 48.88671875 C-103.62152756 48.02646591 -103.4713266 47.16621307 -103.3165741 46.27989197 C-102.64694549 42.62627439 -102.0852901 40.12793515 -100 37 C-98.01898193 35.99435425 -98.01898193 35.99435425 -95.54589844 35.09326172 C-94.61182159 34.74735992 -93.67774475 34.40145813 -92.71536255 34.04507446 C-91.69038666 33.67699677 -90.66541077 33.30891907 -89.609375 32.9296875 C-88.5369455 32.53558685 -87.46451599 32.14148621 -86.35958862 31.73544312 C-82.82636376 30.43939052 -79.28825511 29.15724899 -75.75 27.875 C-73.31653117 26.98504242 -70.8834284 26.09408329 -68.45068359 25.20214844 C-64.08007136 23.60073901 -59.70848463 22.00208391 -55.33513451 20.40817261 C-44.43105141 16.43385438 -33.54689339 12.40613742 -22.66369629 8.37506104 C-17.83145721 6.58595038 -12.99776701 4.80077184 -8.1640625 3.015625 C-6.56461362 2.42481081 -4.96516675 1.8339912 -3.36572266 1.24316406 C-1.69968994 0.62779785 -1.69968994 0.62779785 0 0 Z " fill="#12A0EC" transform="translate(2271,1147)"/>
<path d="M0 0 C1.23249837 2.46499674 0.93411481 3.42989781 0.49746704 6.12387085 C0.36039337 6.98749741 0.2233197 7.85112396 0.08209229 8.74092102 C-0.07567688 9.69057236 -0.23344604 10.64022369 -0.39599609 11.61865234 C-0.5569577 12.61713699 -0.71791931 13.61562164 -0.88375854 14.6443634 C-1.42161103 17.95971675 -1.97082969 21.2730128 -2.5234375 24.5859375 C-2.71170734 25.71546467 -2.89997719 26.84499184 -3.09395218 28.0087471 C-4.09341964 33.98661952 -5.10373437 39.96256542 -6.12060547 45.9375 C-6.96093492 50.88890081 -7.77831995 55.8432598 -8.57568359 60.80175781 C-9.53746495 66.78208442 -10.5383924 72.75459128 -11.56789017 78.72362137 C-11.9539517 81.00110968 -12.32618439 83.28098669 -12.68433762 85.56303024 C-13.18868644 88.75726872 -13.74296086 91.93894939 -14.31005859 95.12255859 C-14.44758545 96.06816147 -14.5851123 97.01376434 -14.72680664 97.98802185 C-15.91308137 104.22736722 -15.91308137 104.22736722 -19.01805115 106.43452549 C-21.32256661 107.47744397 -23.58068339 108.26806565 -26 109 C-27.48326545 109.57193324 -28.96333732 110.15229543 -30.43847656 110.74487305 C-32.00484965 111.33650187 -33.57228441 111.92532546 -35.140625 112.51171875 C-36.00562119 112.83772568 -36.87061737 113.1637326 -37.76182556 113.49961853 C-40.59021414 114.56493403 -43.42001597 115.62643071 -46.25 116.6875 C-50.27242155 118.19845784 -54.29441566 119.71055171 -58.31640625 121.22265625 C-59.34876907 121.6104425 -60.3811319 121.99822876 -61.44477844 122.39776611 C-68.94091608 125.21644789 -76.42365809 128.0689752 -83.90234375 130.93359375 C-86.99623302 132.11522979 -90.0903988 133.29613825 -93.18469238 134.47671509 C-95.18545295 135.24181344 -97.18521336 136.00953239 -99.18395996 136.77987671 C-101.96771612 137.8523355 -104.75487209 138.91544939 -107.54296875 139.9765625 C-108.37416733 140.29962875 -109.20536591 140.62269501 -110.06175232 140.95555115 C-112.01999445 141.69568226 -114.0079437 142.35640231 -116 143 C-116.66 142.67 -117.32 142.34 -118 142 C-110.99999653 133.46427364 -103.98662814 124.94350205 -96.8347168 116.53442383 C-93.27129523 112.33841109 -89.78747543 108.08175553 -86.3125 103.8125 C-83.27632634 100.11985636 -80.1815003 96.47878212 -77.0859375 92.8359375 C-74.18755177 89.4194046 -71.328449 85.97495162 -68.5 82.5 C-64.75212202 77.8954642 -60.93016556 73.35980809 -57.0859375 68.8359375 C-54.18755177 65.4194046 -51.328449 61.97495162 -48.5 58.5 C-44.75212202 53.8954642 -40.93016556 49.35980809 -37.0859375 44.8359375 C-34.18755177 41.4194046 -31.328449 37.97495162 -28.5 34.5 C-25.21176334 30.46016639 -21.87271846 26.46913868 -18.5 22.5 C-12.21184422 15.09777926 -6.05931511 7.59108829 0 0 Z " fill="#134ABF" transform="translate(2271,1149)"/>
<path d="M0 0 C2.97 0 5.94 0 9 0 C9.33 3.96 9.66 7.92 10 12 C11.27875 10.7625 12.5575 9.525 13.875 8.25 C23.65436231 -0.2616672 33.28080424 -1.05323981 45.84912109 -0.23193359 C53.12292321 0.5524151 58.95696052 3.83688815 64 9 C65.52034548 11.28051823 66.75100647 13.55005114 68 16 C68.47308594 15.40832031 68.94617188 14.81664062 69.43359375 14.20703125 C75.642372 6.78796485 83.10940852 0.83276315 93.09814453 -0.22143555 C95.4863845 -0.34072038 97.85879339 -0.37972104 100.25 -0.375 C101.51481201 -0.37258301 101.51481201 -0.37258301 102.80517578 -0.37011719 C109.20138286 -0.24424161 114.43496468 0.67029267 120 4 C121.36125 4.804375 121.36125 4.804375 122.75 5.625 C132.02454328 15.41479568 133.31009728 25.89389282 133.1953125 38.8125 C133.1924826 40.02196289 133.18965271 41.23142578 133.18673706 42.47753906 C133.17559396 46.31846248 133.15049983 50.15914775 133.125 54 C133.11496263 56.61327787 133.1058381 59.22655941 133.09765625 61.83984375 C133.07567383 68.22664296 133.04225475 74.61330446 133 81 C130.03 81 127.06 81 124 81 C123.99453156 79.99641197 123.99453156 79.99641197 123.98895264 78.97254944 C123.94699322 71.97996862 123.87755317 64.98803596 123.79248047 57.99584961 C123.76433489 55.38979591 123.74308864 52.78365786 123.72900391 50.17749023 C123.70748654 46.42127498 123.66078745 42.66606709 123.609375 38.91015625 C123.60814636 37.75354996 123.60691772 36.59694366 123.60565186 35.4052887 C123.45523092 27.0105637 122.00199389 20.73220862 116.6875 14.125 C109.0629406 8.09627861 101.51601787 8.07876848 92 9 C88.66312888 9.90878473 85.92547261 11.17317649 83 13 C82.0925 13.53625 81.185 14.0725 80.25 14.625 C74.69518325 20.48841768 71.93574816 28.06338965 71.79467773 36.04394531 C71.77473251 37.04468079 71.75478729 38.04541626 71.73423767 39.07647705 C71.71752518 40.14952087 71.70081268 41.2225647 71.68359375 42.328125 C71.6524221 43.98433868 71.6524221 43.98433868 71.62062073 45.67401123 C71.55526354 49.19927783 71.49630436 52.72461859 71.4375 56.25 C71.39430164 58.64063265 71.35068693 61.03125782 71.30664062 63.421875 C71.19959628 69.28117173 71.09780415 75.14054214 71 81 C68.03 81 65.06 81 62 81 C61.99413376 80.34346939 61.98826752 79.68693878 61.98222351 79.01051331 C61.9180524 72.14776343 61.83357211 65.28547223 61.73754883 58.4230957 C61.70439264 55.86554022 61.67633205 53.3079132 61.65356445 50.75024414 C61.61984785 47.06365614 61.56752145 43.37771821 61.51171875 39.69140625 C61.50532883 38.55667374 61.4989389 37.42194122 61.49235535 36.25282288 C61.34975396 28.4690942 60.70837699 21.48219898 55.8125 15.1875 C47.51555665 8.73432184 40.54171109 8.05320886 30 9 C24.53132242 10.09542078 19.60309239 12.68443171 16 17 C12.27127539 23.20782259 9.92305704 28.78134446 9.79467773 36.04394531 C9.77473251 37.04468079 9.75478729 38.04541626 9.73423767 39.07647705 C9.70916893 40.68604279 9.70916893 40.68604279 9.68359375 42.328125 C9.66281265 43.43226746 9.64203156 44.53640991 9.62062073 45.67401123 C9.55526354 49.19927783 9.49630436 52.72461859 9.4375 56.25 C9.39430164 58.64063265 9.35068693 61.03125782 9.30664062 63.421875 C9.19959628 69.28117173 9.09780415 75.14054214 9 81 C6.03 81 3.06 81 0 81 C0 54.27 0 27.54 0 0 Z " fill="#00C3E6" transform="translate(911,873)"/>
<path d="M0 0 C28.05 0 56.1 0 85 0 C85 7.87381064 85 7.87381064 82.32421875 11.12890625 C81.46183594 12.20495117 81.46183594 12.20495117 80.58203125 13.30273438 C79.95683594 14.04845703 79.33164063 14.79417969 78.6875 15.5625 C77.7284375 16.74875977 77.7284375 16.74875977 76.75 17.95898438 C75.4509487 19.56529631 74.14548211 21.16644233 72.83349609 22.76220703 C70.34085635 25.80448878 67.9189976 28.89913117 65.5 32 C64.61490031 33.1252494 63.72947699 34.2502443 62.84375 35.375 C59.54679764 39.57112119 56.2737857 43.78579638 53 48 C48.41491526 53.90218252 43.81447133 59.79157899 39.19018555 65.66308594 C34.80761996 71.23288029 30.46114032 76.8306237 26.12109375 82.43359375 C21.80055561 88.00161121 17.40416921 93.49478849 13 99 C49.63 99.495 49.63 99.495 87 100 C87 102.64 87 105.28 87 108 C57.96 108 28.92 108 -1 108 C-1 100.15384615 -1 100.15384615 3.375 95.375 C4.3069823 94.32494897 5.23660292 93.27279787 6.1640625 92.21875 C6.64004883 91.68507813 7.11603516 91.15140625 7.60644531 90.6015625 C9.77097425 88.1139469 11.75508766 85.49953584 13.75 82.875 C14.57905557 81.7874771 15.40849743 80.7002486 16.23828125 79.61328125 C16.6760791 79.03916504 17.11387695 78.46504883 17.56494141 77.87353516 C20.33660601 74.25499923 23.13811334 70.65960406 25.9375 67.0625 C26.83480835 65.90935303 26.83480835 65.90935303 27.75024414 64.73291016 C33.58008133 57.24657215 39.44318026 49.78665287 45.31347656 42.33203125 C51.08109519 35.00617369 56.83084743 27.66654032 62.5625 20.3125 C63.1706958 19.53358398 63.7788916 18.75466797 64.40551758 17.95214844 C64.97423584 17.22157227 65.5429541 16.49099609 66.12890625 15.73828125 C66.63494385 15.08899658 67.14098145 14.43971191 67.66235352 13.77075195 C68.83218339 12.22215256 69.92344395 10.61483408 71 9 C47.57 8.67 24.14 8.34 0 8 C0 5.36 0 2.72 0 0 Z " fill="#00DCFE" transform="translate(1530,846)"/>
<path d="M0 0 C1.91498728 1.91934943 3.41744484 3.78442278 5 6 C3.68 7.65 2.36 9.3 1 11 C-1.74303891 10.59362387 -3.05859648 9.95279728 -5.25 8.1875 C-15.2905478 0.20070061 -28.06108022 -1.90066821 -40.6171875 -0.56640625 C-53.12157327 1.52728421 -63.37529976 6.96336668 -71.46875 16.83203125 C-79.48704815 28.18446868 -81.27945588 40.45056221 -80 54 C-78.41007854 61.98574189 -75.04585196 68.65278476 -70 75 C-69.52175781 75.61488281 -69.04351563 76.22976563 -68.55078125 76.86328125 C-60.85224707 85.60897122 -48.37903097 90.41390198 -36.984375 91.2109375 C-24.63949755 91.59122993 -15.22141867 88.80246927 -5 82 C-3.33766894 80.99280923 -1.67210618 79.99087774 0 79 C1.65 80.65 3.3 82.3 5 84 C2.75162411 89.79242603 -2.78032069 92.1625005 -8 95 C-22.60018601 101.3578385 -40.9429499 102.88363722 -56 97 C-69.34914773 91.32742028 -80.45066525 81.83766436 -86.14453125 68.2734375 C-91.83662971 53.3492783 -92.15820346 35.95314455 -85.78125 21.17578125 C-78.5482588 6.77007378 -66.95526497 -2.48029914 -52 -8 C-35.29893422 -12.81090402 -13.95377975 -11.14117835 0 0 Z " fill="#00D4F5" transform="translate(1374,855)"/>
<path d="M0 0 C9.07922482 6.55805165 14.477862 14.98570124 17.13671875 25.8515625 C19.17097106 38.65199918 17.15668717 50.62183588 9.86328125 61.39453125 C3.53543883 69.47488021 -5.27292731 74.82129735 -15.44921875 76.45703125 C-28.77379711 77.24889191 -39.52575106 75.58996602 -50.44921875 67.45703125 C-58.30321308 60.20372483 -63.25220193 50.78615928 -63.78515625 40.00390625 C-64.03119409 26.93551157 -62.60761717 16.44032006 -53.44921875 6.45703125 C-39.79265435 -7.63261659 -16.75815902 -10.5573729 0 0 Z M-47.44921875 12.20703125 C-54.72649043 21.69061513 -55.8305584 31.84214588 -54.44921875 43.45703125 C-53.57505927 47.13130585 -52.32424318 50.18807419 -50.44921875 53.45703125 C-49.92328125 54.41996094 -49.92328125 54.41996094 -49.38671875 55.40234375 C-45.58089494 61.50751944 -39.71594626 65.07495423 -33.19921875 67.83203125 C-22.5996448 69.59862691 -13.22407239 69.16841714 -4.23046875 62.9140625 C2.66408106 57.29294633 7.44684681 50.43973064 8.55078125 41.45703125 C9.50507435 30.15232839 7.64196401 20.23143131 0.39453125 11.24609375 C-7.10924083 3.96489118 -14.99929404 2.07746079 -25.09350586 2.00390625 C-34.03135717 2.21361556 -41.25073401 5.75955875 -47.44921875 12.20703125 Z " fill="#00ADD2" transform="translate(595.44921875,878.54296875)"/>
<path d="M0 0 C24.09 0 48.18 0 73 0 C73 2.64 73 5.28 73 8 C51.88 8 30.76 8 9 8 C9 22.85 9 37.7 9 53 C27.81 53 46.62 53 66 53 C66 55.64 66 58.28 66 61 C47.19 61 28.38 61 9 61 C9 76.51 9 92.02 9 108 C6.03 108 3.06 108 0 108 C0 72.36 0 36.72 0 0 Z " fill="#00D9FA" transform="translate(1444,846)"/>
<path d="M0 0 C2.64 0 5.28 0 8 0 C8.01213028 0.86538139 8.01213028 0.86538139 8.02450562 1.74824524 C8.11114577 7.80022726 8.21066855 13.85190386 8.31738281 19.90356445 C8.35546052 22.1564416 8.39034874 24.40937516 8.421875 26.66235352 C8.46798957 29.91703336 8.52590377 33.17133183 8.5859375 36.42578125 C8.59748871 37.41894852 8.60903992 38.41211578 8.62094116 39.43537903 C8.84012723 50.02713176 9.40991757 60.40991757 17.25 68.25 C24.93014926 73.13736771 32.01436025 73.96967335 41 73 C48.83599613 71.02507415 53.31679153 67.52650256 58.1875 61.125 C62.31402794 54.01029665 62.32794461 47.20767382 62.4140625 39.16015625 C62.43342865 38.03806259 62.4527948 36.91596893 62.4727478 35.75987244 C62.53228016 32.1941577 62.57882378 28.62841022 62.625 25.0625 C62.66320399 22.63735612 62.70225712 20.21222545 62.7421875 17.78710938 C62.83796001 11.8581907 62.92308397 5.92919168 63 0 C65.97 0 68.94 0 72 0 C72 26.73 72 53.46 72 81 C69.36 81 66.72 81 64 81 C63.67 76.71 63.34 72.42 63 68 C62.195625 69.051875 61.39125 70.10375 60.5625 71.1875 C54.63754126 78.09063589 46.38489874 81.55174356 37.38671875 82.30078125 C26.22129505 82.33615218 16.96189997 81.38465701 8.4453125 73.57421875 C0.31676895 65.10193082 -0.58544781 54.68704551 -0.390625 43.45703125 C-0.38496521 42.20742111 -0.37930542 40.95781097 -0.37347412 39.67033386 C-0.35502214 36.3870762 -0.31924271 33.10464155 -0.2746582 29.82165527 C-0.2333527 26.45607444 -0.21538876 23.09037193 -0.1953125 19.72460938 C-0.15144163 13.14942444 -0.08467792 6.57477934 0 0 Z " fill="#00B3D7" transform="translate(635,873)"/>
<path d="M0 0 C0.7115625 0.44988281 1.423125 0.89976562 2.15625 1.36328125 C0.95266403 4.78887209 -0.20267646 6.89586734 -2.84375 9.36328125 C-3.43800781 9.02554688 -4.03226563 8.6878125 -4.64453125 8.33984375 C-14.73446584 2.91042327 -24.50454231 1.16808645 -35.84375 3.36328125 C-40.70192245 5.01131081 -44.1344481 6.89333509 -46.84375 11.36328125 C-47.76262267 16.07250367 -47.59606423 20.08156071 -45.15625 24.23828125 C-38.18137721 28.71272794 -30.02662797 30.14263614 -22.00708008 31.81005859 C-4.93572102 35.3736095 -4.93572102 35.3736095 1.65625 41.80078125 C5.00070692 47.51422848 6.07049387 52.78301 4.76171875 59.33984375 C2.7829812 65.95265699 -1.81554007 70.10516767 -7.74609375 73.4296875 C-19.58041189 78.79008981 -35.90555663 77.72331709 -47.84375 73.36328125 C-56.95848887 69.65810285 -56.95848887 69.65810285 -59.203125 66.375 C-59.84375 64.36328125 -59.84375 64.36328125 -58.46875 61.61328125 C-57.9325 60.87078125 -57.39625 60.12828125 -56.84375 59.36328125 C-52.68196041 60.21477383 -49.29721234 62.12654057 -45.57421875 64.109375 C-39.33632251 66.97398829 -33.65796859 67.70426951 -26.90625 67.67578125 C-25.76639648 67.69995117 -25.76639648 67.69995117 -24.60351562 67.72460938 C-18.15263602 67.73011824 -12.8580623 66.37282278 -7.40625 62.73828125 C-5.03270899 59.13049891 -4.67528894 55.63606628 -4.84375 51.36328125 C-6.14911332 47.44719129 -7.57932752 46.52042913 -11.13671875 44.40625 C-17.89097201 41.12630961 -25.43423052 40.19422363 -32.7578125 38.828125 C-40.71685349 37.2131178 -49.01193637 35.05482408 -54.37475586 28.48876953 C-57.7653896 23.06345287 -57.80426162 16.52380408 -56.84375 10.36328125 C-54.80762234 5.22289339 -51.54097801 1.2860009 -46.84375 -1.63671875 C-46.24949219 -2.00796875 -45.65523437 -2.37921875 -45.04296875 -2.76171875 C-32.04125814 -9.41268262 -12.34892492 -7.10741695 0 0 Z " fill="#00BDE1" transform="translate(885.84375,878.63671875)"/>
<path d="M0 0 C28.38 0 56.76 0 86 0 C86 2.64 86 5.28 86 8 C73.13 8 60.26 8 47 8 C47 41 47 74 47 108 C44.03 108 41.06 108 38 108 C38 75 38 42 38 8 C25.46 8 12.92 8 0 8 C0 5.36 0 2.72 0 0 Z " fill="#00A8CE" transform="translate(447,846)"/>
<path d="M0 0 C2.97 0 5.94 0 9 0 C9 33 9 66 9 100 C29.46 100 49.92 100 71 100 C71 102.64 71 105.28 71 108 C47.57 108 24.14 108 0 108 C0 72.36 0 36.72 0 0 Z " fill="#00CFF1" transform="translate(1206,846)"/>
<path d="M0 0 C2.64 0 5.28 0 8 0 C8 33 8 66 8 100 C28.46 100 48.92 100 70 100 C70 102.64 70 105.28 70 108 C46.9 108 23.8 108 0 108 C0 72.36 0 36.72 0 0 Z " fill="#00CBED" transform="translate(1117,846)"/>
<path d="M0 0 C2.97 0 5.94 0 9 0 C9.33 4.29 9.66 8.58 10 13 C10.804375 11.948125 11.60875 10.89625 12.4375 9.8125 C16.71004646 4.80925676 22.46488822 1.18029585 29 0 C30.74886981 -0.06624507 32.50002748 -0.08552595 34.25 -0.0625 C35.14203125 -0.05347656 36.0340625 -0.04445313 36.953125 -0.03515625 C37.62859375 -0.02355469 38.3040625 -0.01195312 39 0 C39 2.64 39 5.28 39 8 C37.83984375 8.12955078 37.83984375 8.12955078 36.65625 8.26171875 C28.16494671 9.40720397 22.0131334 11.42888493 16.1875 17.875 C10.20009789 26.42843158 9.85223254 34.80586896 9.68359375 44.8671875 C9.66281265 45.90191193 9.64203156 46.93663635 9.62062073 48.00271606 C9.5554718 51.29341274 9.49640191 54.58418617 9.4375 57.875 C9.3942818 60.11198696 9.35066647 62.34896629 9.30664062 64.5859375 C9.19982606 70.0572139 9.09846173 75.52856717 9 81 C6.03 81 3.06 81 0 81 C0 54.27 0 27.54 0 0 Z " fill="#00B7DB" transform="translate(738,873)"/>
<path d="M0 0 C2.64 0 5.28 0 8 0 C8 26.73 8 53.46 8 81 C5.36 81 2.72 81 0 81 C0 54.27 0 27.54 0 0 Z " fill="#00BADE" transform="translate(798,873)"/>
<path d="M0 0 C4.78134626 0.61066857 8.98036028 1.99948604 13.4140625 3.81640625 C14.12875702 4.10422974 14.84345154 4.39205322 15.57980347 4.68859863 C17.93130881 5.63911115 20.27840943 6.59992296 22.625 7.5625 C23.43767334 7.89402069 24.25034668 8.22554138 25.08764648 8.56710815 C52.11343892 19.60224484 78.70509443 31.5609663 104.88769531 44.46728516 C107.73026352 45.86716304 110.57885585 47.25377341 113.4296875 48.63671875 C126.25192418 54.89986908 138.64644889 61.86303523 151 69 C151.71913574 69.41540039 152.43827148 69.83080078 153.17919922 70.25878906 C156.46113801 72.15846799 159.73599225 74.06967283 163 76 C162.01 76.495 162.01 76.495 161 77 C158.75350776 76.02020459 156.64222321 74.97936893 154.484375 73.828125 C153.47870232 73.30429482 153.47870232 73.30429482 152.45271301 72.7698822 C150.98822274 72.00629157 149.52555762 71.23919298 148.06448364 70.46908569 C144.0977444 68.37972331 140.11610947 66.31903884 136.13671875 64.25390625 C135.30611435 63.82197464 134.47550995 63.39004303 133.61973572 62.94502258 C109.37975827 50.35303641 84.9063308 38.22075082 60 27 C59.30692749 26.68740234 58.61385498 26.37480469 57.89978027 26.05273438 C38.72086732 17.40752116 19.48738521 8.93023456 0 1 C0 0.67 0 0.34 0 0 Z " fill="#C5C4C5" transform="translate(1252,255)"/>
<path d="M0 0 C0.66 0 1.32 0 2 0 C2 0.66 2 1.32 2 2 C2.91925766 2.25537033 2.91925766 2.25537033 3.85708618 2.51589966 C9.92940341 4.26140352 15.6380966 6.40861181 21.3984375 8.9921875 C22.26279419 9.37434921 23.12715088 9.75651093 24.0177002 10.1502533 C26.80631494 11.38553526 29.59080533 12.62979135 32.375 13.875 C34.31778318 14.73937405 36.26065503 15.60354883 38.20361328 16.4675293 C53.21076283 23.15271186 68.15938668 29.95171111 83 37 C84.65273926 37.78407227 84.65273926 37.78407227 86.33886719 38.58398438 C102.02230878 46.04543234 117.58561083 53.74396509 133.125 61.5 C133.98589233 61.92910675 134.84678467 62.3582135 135.73376465 62.80032349 C144.18542703 67.01614278 152.62163986 71.22758414 160.8605957 75.85058594 C162.89370754 76.94289343 164.93020826 77.87020364 167.0625 78.75 C170 80 170 80 172 82 C169 83 169 83 166.91430664 82.14916992 C166.08793701 81.68099854 165.26156738 81.21282715 164.41015625 80.73046875 C163.42466797 80.18438965 162.43917969 79.63831055 161.42382812 79.07568359 C160.31458984 78.45258301 159.20535156 77.82948242 158.0625 77.1875 C126.46969393 59.78210265 93.92200765 43.73429307 61 29 C59.58516383 28.36339096 58.17045778 27.72649267 56.75585938 27.08935547 C32.44760398 16.13813759 32.44760398 16.13813759 7.79003906 6.00512695 C6.4495752 5.46698364 6.4495752 5.46698364 5.08203125 4.91796875 C4.31093018 4.61656982 3.5398291 4.3151709 2.74536133 4.00463867 C1 3 1 3 0 0 Z " fill="#02BAD7" transform="translate(1250,254)"/>
<path d="M0 0 C1.9375 1.6875 1.9375 1.6875 3 4 C2.92897215 7.4803645 2.61415498 9.29485909 0.3125 11.9375 C-2.89943934 13.41325591 -4.66474802 13.06444212 -8 12 C-9.9375 10.3125 -9.9375 10.3125 -11 8 C-10.92897215 4.5196355 -10.61415498 2.70514091 -8.3125 0.0625 C-5.10056066 -1.41325591 -3.33525198 -1.06444212 0 0 Z " fill="#00BADE" transform="translate(806,842)"/>
<path d="M0 0 C10.56480107 4.93356276 21.06684587 9.98072853 31.5 15.1875 C32.47710938 15.67379883 33.45421875 16.16009766 34.4609375 16.66113281 C40.24561026 19.55934792 45.94742074 22.57489015 51.60131836 25.72094727 C53.72585198 26.85381563 55.83769175 27.83497865 58.0625 28.75 C61 30 61 30 63 32 C60 33 60 33 57.59692383 31.99047852 C56.64325928 31.45865967 55.68959473 30.92684082 54.70703125 30.37890625 C53.61616211 29.78021729 52.52529297 29.18152832 51.40136719 28.56469727 C50.81722046 28.23865509 50.23307373 27.91261292 49.63122559 27.57669067 C46.51799381 25.84063403 43.38620818 24.1388424 40.25390625 22.4375 C39.59478241 22.07890396 38.93565857 21.72030792 38.25656128 21.35084534 C30.34764485 17.0703913 22.30372044 13.06179494 14.25 9.0625 C13.53397614 8.70648712 12.81795227 8.35047424 12.08023071 7.9836731 C8.05621856 5.98357067 4.02947114 3.98908774 0 2 C0 1.34 0 0.68 0 0 Z " fill="#00BED9" transform="translate(1359,304)"/>
<path d="M0 0 C1.57587891 0.79664063 1.57587891 0.79664063 3.18359375 1.609375 C12.19215037 6.17575203 12.19215037 6.17575203 21.375 10.375 C25 12 25 12 27 14 C24 15 24 15 21.45629883 13.92016602 C20.46654053 13.37030029 19.47678223 12.82043457 18.45703125 12.25390625 C17.38388672 11.66416016 16.31074219 11.07441406 15.20507812 10.46679688 C14.08552734 9.83837891 12.96597656 9.20996094 11.8125 8.5625 C10.68134766 7.93794922 9.55019531 7.31339844 8.38476562 6.66992188 C5.58472436 5.12221974 2.79023124 3.56529792 0 2 C0 1.34 0 0.68 0 0 Z " fill="#00BFDB" transform="translate(1395,322)"/>
<path d="M0 0 C6.37732315 1.87724961 12.70695459 3.85671642 19 6 C18.67 6.66 18.34 7.32 18 8 C13.82423832 7.31583566 10.11919593 5.98634991 6.1875 4.4375 C5.02605469 3.98246094 3.86460938 3.52742187 2.66796875 3.05859375 C1.34732422 2.53458984 1.34732422 2.53458984 0 2 C0 1.34 0 0.68 0 0 Z " fill="#3DB9CE" transform="translate(1231,247)"/>
<path d="M0 0 C4.67105792 1.55701931 8.08705685 4.08447373 12 7 C9 8 9 8 6.8125 7.0625 C6.214375 6.711875 5.61625 6.36125 5 6 C5 5.34 5 4.68 5 4 C4.360625 3.896875 3.72125 3.79375 3.0625 3.6875 C2.381875 3.460625 1.70125 3.23375 1 3 C0.67 2.01 0.34 1.02 0 0 Z " fill="#2EC0D5" transform="translate(1422,336)"/>
<path d="M0 0 C3.68754757 0.49831724 5.60490662 1.10067643 8 4 C5 5 5 5 2.3125 3.6875 C1.549375 3.130625 0.78625 2.57375 0 2 C0 1.34 0 0.68 0 0 Z " fill="#55C4D4" transform="translate(1414,332)"/>
</svg>
